<?xml version='1.0' encoding='utf-8'?>
<svg xmlns="http://www.w3.org/2000/svg" width="4000" height="2250" viewBox="0 0 1058.3334 595.31249" version="1.1" id="svg1755"> <defs id="defs1749"/> <metadata id="metadata1752"> </metadata> <g id="layer1" transform="translate(0,298.31249)"> <rect style="opacity:1;fill:#c7ff8e;fill-opacity:1;stroke:none;stroke-width:1.96641064;stroke-linecap:round;stroke-linejoin:round;stroke-miterlimit:4;stroke-dasharray:none;stroke-dashoffset:0;stroke-opacity:1;paint-order:fill markers stroke" id="rect1881" width="1056.8214" height="594.17859" x="-5.9675165e-07" y="-297.17856"/> <g id="g1845" transform="matrix(0.77560675,0,0,0.77560675,178.07164,-99.952704)"> <path id="path1822" d="m 434.7892,47.890099 c 0,0 7.39715,9.194318 34.71884,60.983861 27.32168,51.78955 -34.71884,69.49524 -34.71884,69.49524 0,0 -0.1544,-27.89957 -0.0772,-68.17788 0.0772,-40.278307 0.0772,-62.301221 0.0772,-62.301221 z" style="fill:#008000;fill-opacity:1;stroke:none;stroke-width:0.26458332px;stroke-linecap:butt;stroke-linejoin:miter;stroke-opacity:1"/> <path style="fill:#00aa00;fill-opacity:1;stroke:none;stroke-width:0.26458332px;stroke-linecap:butt;stroke-linejoin:miter;stroke-opacity:1" d="m 434.7892,47.890099 c 0,0 -7.39715,9.194318 -34.71884,60.983861 -27.32168,51.78955 34.71884,69.49524 34.71884,69.49524 0,0 0.1544,-27.89957 0.0772,-68.17788 -0.0772,-40.278307 -0.0772,-62.301221 -0.0772,-62.301221 z" id="path1840"/> <path id="path1836" d="m 438.07441,209.8765 -8.69347,-0.18899 3.02382,-39.49851 -10.77233,-18.70983 11.52827,12.28421 1.13392,-28.53719 2.07889,25.32441 9.4494,-12.28423 -9.4494,20.41072 z" style="fill:#673405;fill-opacity:1;stroke:none;stroke-width:0.26458332px;stroke-linecap:butt;stroke-linejoin:miter;stroke-opacity:1"/> </g> <g transform="matrix(0.77560675,0,0,0.77560675,305.93539,-99.952704)" id="g1853"> <path style="fill:#008000;fill-opacity:1;stroke:none;stroke-width:0.26458332px;stroke-linecap:butt;stroke-linejoin:miter;stroke-opacity:1" d="m 434.7892,47.890099 c 0,0 7.39715,9.194318 34.71884,60.983861 27.32168,51.78955 -34.71884,69.49524 -34.71884,69.49524 0,0 -0.1544,-27.89957 -0.0772,-68.17788 0.0772,-40.278307 0.0772,-62.301221 0.0772,-62.301221 z" id="path1847"/> <path id="path1849" d="m 434.7892,47.890099 c 0,0 -7.39715,9.194318 -34.71884,60.983861 -27.32168,51.78955 34.71884,69.49524 34.71884,69.49524 0,0 0.1544,-27.89957 0.0772,-68.17788 -0.0772,-40.278307 -0.0772,-62.301221 -0.0772,-62.301221 z" style="fill:#00aa00;fill-opacity:1;stroke:none;stroke-width:0.26458332px;stroke-linecap:butt;stroke-linejoin:miter;stroke-opacity:1"/> <path style="fill:#673405;fill-opacity:1;stroke:none;stroke-width:0.26458332px;stroke-linecap:butt;stroke-linejoin:miter;stroke-opacity:1" d="m 438.07441,209.8765 -8.69347,-0.18899 3.02382,-39.49851 -10.77233,-18.70983 11.52827,12.28421 1.13392,-28.53719 2.07889,25.32441 9.4494,-12.28423 -9.4494,20.41072 z" id="path1851"/> </g> <g id="g1861" transform="matrix(0.77560675,0,0,0.77560675,242.00352,-99.952704)"> <path id="path1855" d="m 434.7892,47.890099 c 0,0 7.39715,9.194318 34.71884,60.983861 27.32168,51.78955 -34.71884,69.49524 -34.71884,69.49524 0,0 -0.1544,-27.89957 -0.0772,-68.17788 0.0772,-40.278307 0.0772,-62.301221 0.0772,-62.301221 z" style="fill:#008000;fill-opacity:1;stroke:none;stroke-width:0.26458332px;stroke-linecap:butt;stroke-linejoin:miter;stroke-opacity:1"/> <path style="fill:#00aa00;fill-opacity:1;stroke:none;stroke-width:0.26458332px;stroke-linecap:butt;stroke-linejoin:miter;stroke-opacity:1" d="m 434.7892,47.890099 c 0,0 -7.39715,9.194318 -34.71884,60.983861 -27.32168,51.78955 34.71884,69.49524 34.71884,69.49524 0,0 0.1544,-27.89957 0.0772,-68.17788 -0.0772,-40.278307 -0.0772,-62.301221 -0.0772,-62.301221 z" id="path1857"/> <path id="path1859" d="m 438.07441,209.8765 -8.69347,-0.18899 3.02382,-39.49851 -10.77233,-18.70983 11.52827,12.28421 1.13392,-28.53719 2.07889,25.32441 9.4494,-12.28423 -9.4494,20.41072 z" style="fill:#673405;fill-opacity:1;stroke:none;stroke-width:0.26458332px;stroke-linecap:butt;stroke-linejoin:miter;stroke-opacity:1"/> </g> <g transform="matrix(0.77560675,0,0,0.77560675,114.13976,-99.952704)" id="g1869"> <path style="fill:#008000;fill-opacity:1;stroke:none;stroke-width:0.26458332px;stroke-linecap:butt;stroke-linejoin:miter;stroke-opacity:1" d="m 434.7892,47.890099 c 0,0 7.39715,9.194318 34.71884,60.983861 27.32168,51.78955 -34.71884,69.49524 -34.71884,69.49524 0,0 -0.1544,-27.89957 -0.0772,-68.17788 0.0772,-40.278307 0.0772,-62.301221 0.0772,-62.301221 z" id="path1863"/> <path id="path1865" d="m 434.7892,47.890099 c 0,0 -7.39715,9.194318 -34.71884,60.983861 -27.32168,51.78955 34.71884,69.49524 34.71884,69.49524 0,0 0.1544,-27.89957 0.0772,-68.17788 -0.0772,-40.278307 -0.0772,-62.301221 -0.0772,-62.301221 z" style="fill:#00aa00;fill-opacity:1;stroke:none;stroke-width:0.26458332px;stroke-linecap:butt;stroke-linejoin:miter;stroke-opacity:1"/> <path style="fill:#673405;fill-opacity:1;stroke:none;stroke-width:0.26458332px;stroke-linecap:butt;stroke-linejoin:miter;stroke-opacity:1" d="m 438.07441,209.8765 -8.69347,-0.18899 3.02382,-39.49851 -10.77233,-18.70983 11.52827,12.28421 1.13392,-28.53719 2.07889,25.32441 9.4494,-12.28423 -9.4494,20.41072 z" id="path1867"/> </g> <g id="g1877" transform="matrix(0.77560675,0,0,0.77560675,50.207939,-99.952704)"> <path id="path1871" d="m 434.7892,47.890099 c 0,0 7.39715,9.194318 34.71884,60.983861 27.32168,51.78955 -34.71884,69.49524 -34.71884,69.49524 0,0 -0.1544,-27.89957 -0.0772,-68.17788 0.0772,-40.278307 0.0772,-62.301221 0.0772,-62.301221 z" style="fill:#008000;fill-opacity:1;stroke:none;stroke-width:0.26458332px;stroke-linecap:butt;stroke-linejoin:miter;stroke-opacity:1"/> <path style="fill:#00aa00;fill-opacity:1;stroke:none;stroke-width:0.26458332px;stroke-linecap:butt;stroke-linejoin:miter;stroke-opacity:1" d="m 434.7892,47.890099 c 0,0 -7.39715,9.194318 -34.71884,60.983861 -27.32168,51.78955 34.71884,69.49524 34.71884,69.49524 0,0 0.1544,-27.89957 0.0772,-68.17788 -0.0772,-40.278307 -0.0772,-62.301221 -0.0772,-62.301221 z" id="path1873"/> <path id="path1875" d="m 438.07441,209.8765 -8.69347,-0.18899 3.02382,-39.49851 -10.77233,-18.70983 11.52827,12.28421 1.13392,-28.53719 2.07889,25.32441 9.4494,-12.28423 -9.4494,20.41072 z" style="fill:#673405;fill-opacity:1;stroke:none;stroke-width:0.26458332px;stroke-linecap:butt;stroke-linejoin:miter;stroke-opacity:1"/> </g> </g> </svg>