<svg id="Capa_1" enable-background="new 0 0 512.12 512.12" height="512" viewBox="0 0 512.12 512.12" width="512" xmlns="http://www.w3.org/2000/svg"><g><g><path d="m371.84 373.95c-21.93-10.96-35.78-33.38-35.78-57.89h-40c0 33.14 26.86 60 60 60h20z" fill="#f3eff0"/><path d="m176.06 316.06c0 24.51-13.85 46.93-35.78 57.89l-4.22 2.11h20c33.14 0 60-26.86 60-60z" fill="#f3eff0"/><path d="m420.06 10.06c-38.06 0-57.89 36.12-100.64 45.09-6.34-1.97-12.98-3.2-19.8-3.6-37.32-2.18-73.56-2.8-102.39 4.1-46.06-7.55-67.58-45.59-105.17-45.59-54.93 0-82.06 119.2-82.06 146.54 0 8.26 1.97 24.48 27.66 30.93 17.57 4.41 30.21 19.38 29.9 37.49-.02.71-.02 1.43-.02 2.14 0 13.54 1.96 43.19 28.92 43.19 26.1 0 56.61-29.4 70.23-47.14h.01c3.09 9.18 4.01 18.98 2.39 28.69l-9.15 40.87c-2.037 12.234 7.421 23.29 19.73 23.29h43.27l7.29 105.98c-47.484.028-30.282.018-34.17.02v38.46c0 22.977 18.647 41.54 41.54 41.54 21.7 0 39.75-16.71 41.41-38.35l10.17-147.65h43.27c12.304 0 21.768-11.052 19.73-23.29l-9.13-40.8c-1.62-9.72-.65-19.5 2.43-28.68 13.64 17.74 44.11 47.06 70.18 47.06 26.96 0 28.92-29.68 28.92-43.19 0-.78-.01-1.56-.02-2.34-.34-18.02 12.28-32.91 29.78-37.24 25.64-6.35 27.78-22.41 27.78-30.98 0-27.34-27.13-146.54-82.06-146.54z" fill="#c1b0b5"/></g><g><circle cx="316.06" cy="170.06" r="10"/><circle cx="196.06" cy="170.06" r="10"/><circle cx="484.06" cy="80.06" r="10"/><path d="m495.052 113.334c-5.39 1.204-8.784 6.549-7.581 11.939 3.428 15.348 4.649 26.246 4.649 31.326 0 8.047-2.398 16.868-20.182 21.273-22.425 5.548-37.795 24.931-37.377 47.072.01.81.019 1.546.019 2.215 0 33.19-13.746 33.19-18.92 33.19-19.422 0-44.778-22.257-58.746-38.818 1.093-2.448 2.35-4.854 3.806-7.182 16.949-27.119 25.937-58.065 25.308-87.136-.072-3.336-.351-6.634-.811-9.886 22.13-17.958 29.189-17.403 29.242-17.397 8.362 1.356 10.954 8.51 11.68 11.522 1.294 5.369 6.696 8.667 12.065 7.378 5.369-1.294 8.672-6.696 7.378-12.065-2.674-11.092-11.413-23.898-27.923-26.578-6.084-.985-16.454-.071-38.222 16.279-6.789-16.112-18.495-30.04-33.639-39.89 10.65-5.088 19.882-11.322 28.428-17.108 15.38-10.415 28.663-19.409 45.835-19.409 12.396 0 24.472 8.495 35.893 25.249 3.111 4.564 9.333 5.74 13.896 2.63 4.563-3.111 5.741-9.332 2.63-13.896-15.373-22.548-33.009-33.982-52.42-33.982-23.307 0-40.46 11.616-57.049 22.849-12.951 8.77-26.332 17.812-43.291 21.907-6.363-1.77-12.915-2.862-19.517-3.249-35.526-2.075-72.526-3-103.135 3.881-19.565-3.64-34.586-13.531-49.112-23.125-16.574-10.945-33.711-22.263-55.896-22.263-27.763 0-52.272 23.935-70.878 69.217-14.45 35.167-21.182 72.896-21.182 87.323 0 20.794 12.181 34.843 35.226 40.629 13.567 3.405 22.538 14.482 22.336 27.571-.021.783-.022 1.577-.022 2.359 0 28.646 10.286 53.19 38.92 53.19 22.672 0 46.466-17.431 63.245-34.19-.1 1.286-.232 2.568-.437 3.836 0 0-9.163 40.95-9.193 41.131-2.168 13.019 4.51 25.594 15.594 31.468-2.146 18.188-13.173 34.07-29.861 42.411l-4.22 2.11c-4.148 2.074-6.326 6.728-5.261 11.242s5.095 7.703 9.732 7.703h20c25.03 0 47.022-13.214 59.399-33.024l4.06 59.024h-23.458c-5.523 0-10 4.477-10 10v38.46c0 28.877 23.465 51.54 51.54 51.54 26.765 0 49.334-20.902 51.387-47.663l7.671-111.367c12.376 19.813 34.37 33.03 59.402 33.03h20c10.515 0 13.875-14.244 4.472-18.944l-4.221-2.11c-16.689-8.341-27.716-24.227-29.86-42.417 11.093-5.882 17.761-18.45 15.594-31.461-.03-.181-.065-.362-.105-.541l-9.067-40.519c-.208-1.291-.342-2.587-.442-3.885 16.774 16.742 40.57 34.167 63.23 34.167 15.598 0 27.594-8.036 33.777-22.627 3.46-8.166 5.143-18.163 5.143-30.563 0-.786-.022-2.529-.022-2.529-.245-13.012 8.669-24 22.186-27.345 23.144-5.731 35.376-19.801 35.376-40.687 0-7.962-1.917-21.302-5.129-35.686-1.205-5.389-6.554-8.783-11.94-7.579zm-398.592 147.016c-5.174 0-18.92 0-18.92-33.19 0-1.746.015-1.667.019-1.969.381-22.253-15.025-41.729-37.463-47.36-17.708-4.446-20.096-13.227-20.096-21.231 0-13.007 7.008-48.881 19.681-79.722 8.719-21.22 27.118-56.818 52.379-56.818 16.176 0 29.475 8.783 44.874 18.953 8.949 5.91 18.57 12.262 29.65 17.414-16.91 9.147-28.584 22.277-34.906 39.283-21.096-15.635-31.238-16.492-37.221-15.521-16.521 2.683-25.255 15.491-27.919 26.583-1.29 5.37 2.018 10.769 7.388 12.059 5.373 1.292 10.769-2.018 12.059-7.388.723-3.009 3.307-10.154 11.661-11.511.076-.007 7.101-.56 29.111 17.272-.45 4.134-.697 8.427-.697 12.855 0 28.399 9.105 58.5 25.636 84.755 1.35 2.146 2.525 4.374 3.556 6.648-13.973 16.591-39.345 38.888-58.792 38.888zm71.812 104.202c9.219-10.788 15.218-24.089 17.128-38.502h19.646c-3.837 18.828-18.267 33.839-36.774 38.502zm37.788 67.508h14.835l2.125 30.891c.589 7.608-2.076 14.98-7.134 20.441-6.236-5.886-9.826-14.045-9.826-22.872zm62.98 30.885c-1.252 16.326-15.063 29.115-31.439 29.115-.991 0-1.975-.063-2.955-.155 6.106-8.756 9.169-19.457 8.322-30.411-1.532-22.799-11.779-172.619-13.444-195.434h26.537c5.523 0 10-4.477 10-10s-4.477-10-10-10h-27.913l-2.111-30.687c-.379-5.51-5.144-9.667-10.663-9.29-5.51.379-9.669 5.153-9.29 10.663l6.144 89.313h-32.558c-6.143 0-10.754-5.463-9.901-11.42 0 0 9.154-40.914 9.185-41.094 1.845-11.057.885-22.65-2.779-33.535-1.858-5.504-4.398-10.835-7.552-15.849-14.55-23.108-22.563-49.425-22.563-74.102 0-37.225 18.297-56.267 53.49-64.683.015-.004.03-.006.045-.01 28.566-6.828 66.297-5.771 99.44-3.834 36.17 2.122 66.229 30.591 66.998 66.113.546 25.222-7.364 52.25-22.271 76.102-9.991 15.975-13.276 33.664-10.575 49.866.03.181.065.361.105.54l9.06 40.485c.853 5.949-3.764 11.421-9.901 11.421h-32.558l6.145-89.313c.379-5.51-3.78-10.284-9.29-10.663-5.509-.374-10.284 3.78-10.663 9.29l-4.863 70.687h-25.16c-5.523 0-10 4.477-10 10s4.477 9.99 10 9.99l23.784.01c-.986 10.662-.869 10.325-.769 11.177zm38.034-136.885h19.646c1.91 14.402 7.908 27.703 17.128 38.492-18.506-4.663-32.937-19.674-36.774-38.492z"/></g></g></svg>